<svg width="412" height="379" viewBox="0 0 412 379" fill="none" xmlns="http://www.w3.org/2000/svg">
<ellipse cx="206" cy="189.5" rx="206" ry="189.5" fill="#ACEF6E"/>
<g clip-path="url(#clip0)">
<path d="M209.228 86.5136L200.573 88.7107L93.9398 115.779L85.2847 117.976C81.0836 119.048 77.4857 121.716 75.2805 125.395C73.0753 129.075 72.4428 133.465 73.5218 137.603L111.053 280.862C112.141 284.998 114.851 288.539 118.589 290.71C122.327 292.881 126.787 293.503 130.99 292.441L131.013 292.436L254.912 260.984L254.934 260.979C259.135 259.907 262.733 257.239 264.938 253.56C267.144 249.88 267.776 245.49 266.697 241.352L229.166 98.0926C228.078 93.9572 225.368 90.4156 221.63 88.2449C217.892 86.0741 213.432 85.4515 209.228 86.5136Z" fill="#F2F2F2"/>
<path d="M210.404 91.004L200.153 93.6063L96.7113 119.865L86.46 122.467C83.4683 123.23 80.9062 125.13 79.3358 127.75C77.7654 130.37 77.315 133.496 78.0834 136.443L115.614 279.703C116.389 282.648 118.319 285.17 120.981 286.716C123.643 288.261 126.819 288.705 129.812 287.948L129.835 287.943L253.734 256.491L253.756 256.486C256.748 255.723 259.31 253.823 260.88 251.203C262.451 248.582 262.901 245.456 262.133 242.509L224.602 99.2497C223.827 96.3048 221.897 93.7828 219.235 92.2369C216.573 90.6911 213.397 90.2477 210.404 91.004V91.004Z" fill="white"/>
<path d="M202.663 137.395L139.986 153.306C139.286 153.483 138.543 153.38 137.92 153.018C137.297 152.657 136.846 152.067 136.666 151.377C136.485 150.688 136.59 149.957 136.957 149.344C137.325 148.731 137.924 148.287 138.624 148.109L201.302 132.199C202.002 132.022 202.744 132.125 203.366 132.487C203.989 132.849 204.439 133.439 204.62 134.127C204.8 134.816 204.696 135.547 204.329 136.16C203.962 136.773 203.363 137.217 202.663 137.395V137.395Z" fill="#F2F2F2"/>
<path d="M215.849 143.4L142.283 162.075C141.583 162.253 140.84 162.149 140.217 161.788C139.595 161.426 139.143 160.836 138.963 160.147C138.782 159.458 138.887 158.726 139.255 158.113C139.622 157.5 140.222 157.056 140.922 156.878L214.487 138.204C215.187 138.026 215.93 138.13 216.553 138.491C217.176 138.853 217.627 139.443 217.807 140.132C217.988 140.821 217.883 141.553 217.516 142.166C217.148 142.779 216.549 143.223 215.849 143.4V143.4Z" fill="#F2F2F2"/>
<path d="M212.959 176.694L150.281 192.604C149.934 192.692 149.574 192.712 149.219 192.663C148.865 192.613 148.524 192.496 148.215 192.317C147.907 192.138 147.638 191.901 147.422 191.619C147.207 191.338 147.05 191.017 146.961 190.676C146.871 190.335 146.851 189.98 146.901 189.631C146.951 189.282 147.071 188.946 147.253 188.642C147.435 188.339 147.675 188.074 147.961 187.862C148.247 187.65 148.573 187.496 148.92 187.408L211.597 171.497C211.944 171.409 212.305 171.389 212.659 171.438C213.014 171.488 213.355 171.605 213.663 171.784C213.971 171.963 214.241 172.2 214.456 172.482C214.671 172.764 214.828 173.084 214.917 173.425C215.007 173.767 215.027 174.122 214.977 174.471C214.927 174.82 214.808 175.155 214.626 175.459C214.444 175.762 214.203 176.028 213.917 176.239C213.631 176.451 213.305 176.606 212.959 176.694V176.694Z" fill="#F2F2F2"/>
<path d="M226.144 182.699L152.578 201.373C152.232 201.461 151.871 201.481 151.516 201.432C151.162 201.382 150.821 201.265 150.513 201.086C150.204 200.907 149.935 200.67 149.72 200.388C149.504 200.107 149.347 199.786 149.258 199.445C149.169 199.104 149.148 198.749 149.199 198.4C149.249 198.051 149.368 197.715 149.55 197.411C149.732 197.108 149.973 196.843 150.259 196.631C150.545 196.419 150.87 196.265 151.217 196.177L224.783 177.502C225.483 177.325 226.226 177.428 226.848 177.789C227.471 178.151 227.922 178.741 228.103 179.43C228.283 180.12 228.178 180.851 227.811 181.464C227.444 182.077 226.844 182.521 226.144 182.699Z" fill="#F2F2F2"/>
<path d="M223.254 215.992L160.576 231.902C159.876 232.08 159.134 231.976 158.511 231.614C157.889 231.253 157.438 230.663 157.258 229.974C157.077 229.285 157.182 228.554 157.549 227.941C157.916 227.328 158.515 226.884 159.215 226.706L221.892 210.795C222.592 210.618 223.336 210.721 223.958 211.083C224.581 211.444 225.032 212.035 225.213 212.724C225.393 213.413 225.288 214.144 224.921 214.757C224.553 215.37 223.954 215.814 223.254 215.992Z" fill="#F2F2F2"/>
<path d="M236.439 221.997L162.873 240.671C162.527 240.76 162.166 240.78 161.811 240.731C161.456 240.682 161.115 240.564 160.806 240.385C160.498 240.206 160.228 239.969 160.013 239.688C159.797 239.406 159.64 239.085 159.551 238.744C159.462 238.402 159.441 238.047 159.491 237.698C159.542 237.349 159.661 237.013 159.843 236.709C160.025 236.406 160.267 236.141 160.553 235.929C160.839 235.717 161.165 235.563 161.512 235.475L235.078 216.801C235.778 216.623 236.521 216.726 237.144 217.088C237.766 217.449 238.217 218.04 238.398 218.729C238.578 219.418 238.474 220.149 238.106 220.762C237.739 221.375 237.139 221.819 236.439 221.997V221.997Z" fill="#F2F2F2"/>
<path d="M129.286 169.62L107.105 175.25C106.769 175.335 106.413 175.285 106.115 175.112C105.816 174.939 105.6 174.656 105.513 174.326L100.421 154.89C100.335 154.56 100.385 154.209 100.562 153.916C100.738 153.622 101.025 153.409 101.36 153.323L123.541 147.693C123.877 147.608 124.233 147.657 124.532 147.831C124.83 148.004 125.046 148.287 125.133 148.617L130.225 168.053C130.311 168.383 130.261 168.734 130.085 169.027C129.908 169.321 129.621 169.534 129.286 169.62V169.62Z" fill="#E6E6E6"/>
<path d="M139.581 208.918L117.4 214.549C117.064 214.633 116.708 214.584 116.41 214.41C116.111 214.237 115.895 213.954 115.808 213.624L110.716 194.189C110.63 193.858 110.681 193.508 110.857 193.214C111.033 192.92 111.32 192.707 111.656 192.621L133.837 186.991C134.172 186.906 134.528 186.956 134.827 187.129C135.125 187.302 135.342 187.585 135.429 187.915L140.52 207.351C140.606 207.681 140.556 208.032 140.38 208.326C140.204 208.619 139.916 208.832 139.581 208.918V208.918Z" fill="#E6E6E6"/>
<path d="M149.876 248.217L127.695 253.847C127.36 253.932 127.004 253.882 126.705 253.709C126.407 253.536 126.19 253.253 126.103 252.923L121.012 233.487C120.926 233.157 120.976 232.806 121.152 232.512C121.328 232.219 121.615 232.006 121.951 231.92L144.132 226.289C144.468 226.205 144.824 226.254 145.122 226.428C145.421 226.601 145.637 226.884 145.724 227.214L150.816 246.649C150.902 246.98 150.851 247.33 150.675 247.624C150.499 247.918 150.212 248.131 149.876 248.217V248.217Z" fill="#E6E6E6"/>
<path d="M295.672 122.827H167.673C163.333 122.832 159.173 124.531 156.104 127.552C153.035 130.572 151.309 134.668 151.304 138.94V286.887C151.309 291.159 153.035 295.254 156.104 298.275C159.173 301.296 163.333 302.995 167.673 303H295.672C300.012 302.995 304.172 301.296 307.241 298.275C310.31 295.254 312.036 291.159 312.041 286.887V138.94C312.036 134.668 310.31 130.572 307.241 127.552C304.172 124.531 300.012 122.832 295.672 122.827V122.827Z" fill="#E6E6E6"/>
<path d="M295.672 127.466H167.673C164.583 127.469 161.62 128.679 159.434 130.83C157.249 132.981 156.02 135.898 156.016 138.94V286.887C156.02 289.929 157.249 292.845 159.434 294.997C161.62 297.148 164.583 298.358 167.673 298.361H295.672C298.762 298.358 301.725 297.148 303.911 294.997C306.096 292.845 307.325 289.929 307.329 286.887V138.94C307.325 135.898 306.096 132.981 303.911 130.83C301.725 128.679 298.762 127.469 295.672 127.466V127.466Z" fill="white"/>
<path d="M309.119 321C325.622 321 339 307.831 339 291.586C339 275.342 325.622 262.173 309.119 262.173C292.616 262.173 279.238 275.342 279.238 291.586C279.238 307.831 292.616 321 309.119 321Z" fill="#6C63FF"/>
<path d="M323.41 287.75H313.017V277.519C313.017 276.501 312.606 275.526 311.875 274.806C311.144 274.087 310.153 273.682 309.119 273.682C308.085 273.682 307.094 274.087 306.363 274.806C305.632 275.526 305.222 276.501 305.222 277.519V287.75H294.828C293.794 287.75 292.803 288.154 292.072 288.873C291.341 289.593 290.931 290.569 290.931 291.586C290.931 292.604 291.341 293.58 292.072 294.299C292.803 295.019 293.794 295.423 294.828 295.423H305.222V305.654C305.222 306.671 305.632 307.647 306.363 308.367C307.094 309.086 308.085 309.49 309.119 309.49C310.153 309.49 311.144 309.086 311.875 308.367C312.606 307.647 313.017 306.671 313.017 305.654V295.423H323.41C324.444 295.423 325.435 295.019 326.166 294.299C326.897 293.58 327.307 292.604 327.307 291.586C327.307 290.569 326.897 289.593 326.166 288.873C325.435 288.154 324.444 287.75 323.41 287.75V287.75Z" fill="white"/>
<path d="M276.408 208.762H211.68C211.322 208.762 210.967 208.693 210.636 208.558C210.305 208.424 210.004 208.226 209.75 207.977C209.497 207.728 209.296 207.432 209.159 207.106C209.022 206.78 208.951 206.431 208.951 206.079C208.951 205.726 209.022 205.377 209.159 205.051C209.296 204.725 209.497 204.429 209.75 204.18C210.004 203.931 210.305 203.733 210.636 203.599C210.967 203.464 211.322 203.395 211.68 203.395H276.408C277.13 203.396 277.823 203.679 278.333 204.182C278.844 204.685 279.131 205.367 279.131 206.079C279.131 206.79 278.844 207.472 278.333 207.975C277.823 208.478 277.13 208.761 276.408 208.762V208.762Z" fill="#E6E6E6"/>
<path d="M287.652 217.818H211.68C211.322 217.818 210.967 217.749 210.636 217.615C210.305 217.48 210.004 217.282 209.75 217.033C209.497 216.784 209.296 216.488 209.159 216.162C209.022 215.836 208.951 215.487 208.951 215.135C208.951 214.782 209.022 214.433 209.159 214.107C209.296 213.781 209.497 213.485 209.75 213.236C210.004 212.987 210.305 212.789 210.636 212.655C210.967 212.52 211.322 212.451 211.68 212.451H287.652C288.375 212.451 289.068 212.734 289.58 213.237C290.091 213.741 290.378 214.423 290.378 215.135C290.378 215.846 290.091 216.529 289.58 217.032C289.068 217.535 288.375 217.818 287.652 217.818Z" fill="#E6E6E6"/>
<path d="M276.408 249.346H211.68C211.322 249.346 210.967 249.277 210.636 249.143C210.305 249.008 210.004 248.81 209.75 248.561C209.497 248.312 209.296 248.016 209.159 247.69C209.022 247.365 208.951 247.015 208.951 246.663C208.951 246.31 209.022 245.961 209.159 245.635C209.296 245.309 209.497 245.014 209.75 244.764C210.004 244.515 210.305 244.318 210.636 244.183C210.967 244.048 211.322 243.979 211.68 243.979H276.408C277.131 243.979 277.824 244.262 278.335 244.765C278.847 245.269 279.134 245.951 279.134 246.663C279.134 247.374 278.847 248.057 278.335 248.56C277.824 249.063 277.131 249.346 276.408 249.346V249.346Z" fill="#E6E6E6"/>
<path d="M287.652 258.402H211.68C211.322 258.402 210.967 258.333 210.636 258.199C210.305 258.064 210.004 257.866 209.75 257.617C209.497 257.368 209.296 257.072 209.159 256.746C209.022 256.42 208.951 256.071 208.951 255.719C208.951 255.366 209.022 255.017 209.159 254.691C209.296 254.365 209.497 254.069 209.75 253.82C210.004 253.571 210.305 253.373 210.636 253.239C210.967 253.104 211.322 253.035 211.68 253.035H287.652C288.01 253.035 288.365 253.104 288.696 253.239C289.027 253.373 289.328 253.571 289.582 253.82C289.835 254.069 290.036 254.365 290.173 254.691C290.31 255.017 290.381 255.366 290.381 255.719C290.381 256.071 290.31 256.42 290.173 256.746C290.036 257.072 289.835 257.368 289.582 257.617C289.328 257.866 289.027 258.064 288.696 258.199C288.365 258.333 288.01 258.402 287.652 258.402Z" fill="#E6E6E6"/>
<path d="M197.18 221.929H174.274C173.927 221.928 173.595 221.793 173.35 221.551C173.105 221.31 172.967 220.983 172.967 220.642V200.571C172.967 200.23 173.105 199.903 173.35 199.661C173.595 199.42 173.927 199.285 174.274 199.284H197.18C197.527 199.285 197.859 199.42 198.104 199.661C198.349 199.903 198.487 200.23 198.487 200.571V220.642C198.487 220.983 198.349 221.31 198.104 221.551C197.859 221.793 197.527 221.928 197.18 221.929V221.929Z" fill="#E6E6E6"/>
<path d="M197.18 262.513H174.274C173.927 262.513 173.595 262.377 173.35 262.136C173.105 261.894 172.967 261.567 172.967 261.226V241.155C172.967 240.814 173.105 240.487 173.35 240.246C173.595 240.004 173.927 239.869 174.274 239.868H197.18C197.527 239.869 197.859 240.004 198.104 240.246C198.349 240.487 198.487 240.814 198.487 241.155V261.226C198.487 261.567 198.349 261.894 198.104 262.136C197.859 262.377 197.527 262.513 197.18 262.513V262.513Z" fill="#E6E6E6"/>
<path d="M276.48 163.584H228.758C228.036 163.584 227.342 163.301 226.831 162.798C226.32 162.294 226.033 161.612 226.033 160.9C226.033 160.189 226.32 159.506 226.831 159.003C227.342 158.5 228.036 158.217 228.758 158.217H276.48C277.203 158.217 277.896 158.5 278.407 159.003C278.919 159.506 279.206 160.189 279.206 160.9C279.206 161.612 278.919 162.294 278.407 162.798C277.896 163.301 277.203 163.584 276.48 163.584Z" fill="#CCCCCC"/>
<path d="M287.724 172.64H228.758C228.4 172.64 228.046 172.57 227.715 172.435C227.385 172.301 227.084 172.103 226.831 171.854C226.578 171.605 226.377 171.309 226.24 170.983C226.103 170.658 226.033 170.309 226.033 169.956C226.033 169.604 226.103 169.255 226.24 168.93C226.377 168.604 226.578 168.308 226.831 168.059C227.084 167.81 227.385 167.612 227.715 167.477C228.046 167.343 228.4 167.273 228.758 167.273H287.724C288.447 167.273 289.14 167.556 289.652 168.059C290.163 168.562 290.45 169.245 290.45 169.956C290.45 170.668 290.163 171.351 289.652 171.854C289.14 172.357 288.447 172.64 287.724 172.64V172.64Z" fill="#CCCCCC"/>
<path d="M218.197 183.614H174.202C173.855 183.614 173.523 183.478 173.278 183.237C173.033 182.996 172.895 182.669 172.895 182.328V148.529C172.895 148.188 173.033 147.861 173.278 147.62C173.523 147.378 173.855 147.243 174.202 147.242H218.197C218.543 147.243 218.876 147.378 219.121 147.62C219.366 147.861 219.504 148.188 219.504 148.529V182.328C219.504 182.669 219.366 182.996 219.121 183.237C218.876 183.478 218.543 183.614 218.197 183.614V183.614Z" fill="#6C63FF"/>
</g>
<defs>
<clipPath id="clip0">
<rect width="266" height="235" fill="white" transform="translate(73 86)"/>
</clipPath>
</defs>
</svg>
